<svg id="Layer_1" data-name="Layer 1" xmlns="http://www.w3.org/2000/svg" viewBox="0 0 849 872.09"><defs><style>.cls-1{fill:#a2a4a3;opacity:0.2;}.cls-106,.cls-107,.cls-19,.cls-2,.cls-21,.cls-26,.cls-3,.cls-78{fill:none;}.cls-3{stroke:#525a6e;}.cls-106,.cls-107,.cls-19,.cls-21,.cls-26,.cls-3,.cls-7,.cls-78,.cls-8,.cls-9{stroke-miterlimit:10;}.cls-3,.cls-78{stroke-width:1.83px;}.cls-4{fill:#bfb2cc;}.cls-5{font-size:11.66px;}.cls-11,.cls-12,.cls-18,.cls-27,.cls-35,.cls-38,.cls-43,.cls-5,.cls-55,.cls-6,.cls-60,.cls-63,.cls-69,.cls-70,.cls-95,.cls-96,.cls-99{fill:#1a1818;}.cls-27,.cls-35,.cls-38,.cls-5,.cls-95,.cls-96,.cls-99{font-family:Roboto-Bold, Roboto;font-weight:700;}.cls-6{font-size:9.17px;}.cls-11,.cls-12,.cls-18,.cls-43,.cls-55,.cls-6,.cls-60,.cls-63,.cls-69,.cls-70{font-family:Roboto-Regular, Roboto;}.cls-7,.cls-92{fill:#7fb530;}.cls-7,.cls-8,.cls-9{fill-opacity:0.2;stroke-width:2.42px;}.cls-21,.cls-7{stroke:#7dbe32;}.cls-8{fill:#ed1c24;stroke:#ed1c24;}.cls-9,.cls-94{fill:#faa817;}.cls-19,.cls-9{stroke:#faa817;}.cls-10{letter-spacing:-0.01em;}.cls-11,.cls-12{font-size:12.83px;}.cls-11{letter-spacing:0em;}.cls-13{letter-spacing:-0.01em;}.cls-14{letter-spacing:0em;}.cls-15{letter-spacing:0em;}.cls-16{letter-spacing:0em;}.cls-17{letter-spacing:-0.01em;}.cls-18,.cls-27,.cls-35,.cls-38{font-size:11.92px;}.cls-107,.cls-19,.cls-21{stroke-width:2.75px;}.cls-20{fill:#a490bb;}.cls-22{fill:#525a6e;}.cls-23{fill:#fac40e;}.cls-24{fill:#5a2d82;}.cls-108,.cls-112,.cls-25,.cls-79,.cls-91{fill:#fff;}.cls-26{stroke:#361d67;stroke-width:1.21px;}.cls-28,.cls-38{letter-spacing:-0.05em;}.cls-29{letter-spacing:-0.05em;}.cls-30,.cls-35{letter-spacing:-0.05em;}.cls-31{letter-spacing:-0.05em;}.cls-32{letter-spacing:-0.07em;}.cls-33{letter-spacing:-0.09em;}.cls-34{letter-spacing:-0.07em;}.cls-36{letter-spacing:-0.05em;}.cls-37{letter-spacing:0em;}.cls-39{letter-spacing:0em;}.cls-40{letter-spacing:-0.07em;}.cls-41{letter-spacing:-0.09em;}.cls-42{letter-spacing:-0.05em;}.cls-43,.cls-55,.cls-60,.cls-63,.cls-69,.cls-70{font-size:13.75px;}.cls-44,.cls-55{letter-spacing:-0.02em;}.cls-45,.cls-60{letter-spacing:-0.03em;}.cls-46{letter-spacing:-0.02em;}.cls-47{letter-spacing:-0.04em;}.cls-48{letter-spacing:-0.03em;}.cls-49{letter-spacing:-0.03em;}.cls-50{letter-spacing:-0.03em;}.cls-51{letter-spacing:-0.02em;}.cls-52{letter-spacing:-0.03em;}.cls-53{letter-spacing:-0.03em;}.cls-54{letter-spacing:-0.03em;}.cls-56{letter-spacing:0em;}.cls-57{letter-spacing:-0.03em;}.cls-58{letter-spacing:-0.03em;}.cls-59{letter-spacing:-0.03em;}.cls-61{letter-spacing:-0.02em;}.cls-62{letter-spacing:0em;}.cls-63{letter-spacing:-0.06em;}.cls-64,.cls-69{letter-spacing:-0.02em;}.cls-65{letter-spacing:-0.03em;}.cls-66{letter-spacing:-0.03em;}.cls-67{letter-spacing:-0.03em;}.cls-68{letter-spacing:0em;}.cls-70{letter-spacing:-0.03em;}.cls-71{letter-spacing:-0.05em;}.cls-72{letter-spacing:-0.03em;}.cls-73,.cls-79{font-size:10.54px;}.cls-73{fill:#3a393a;}.cls-108,.cls-112,.cls-73,.cls-79,.cls-91{font-family:Montserrat-Regular, Montserrat;}.cls-74{letter-spacing:-0.01em;}.cls-75{letter-spacing:-0.02em;}.cls-76{letter-spacing:-0.01em;}.cls-77{letter-spacing:-0.02em;}.cls-78{stroke:#fff;}.cls-80{letter-spacing:-0.06em;}.cls-81{letter-spacing:-0.01em;}.cls-82{letter-spacing:-0.01em;}.cls-83{letter-spacing:-0.01em;}.cls-84{letter-spacing:-0.01em;}.cls-85{letter-spacing:-0.01em;}.cls-86{letter-spacing:-0.01em;}.cls-87{letter-spacing:0em;}.cls-88{letter-spacing:-0.01em;}.cls-89{letter-spacing:0em;}.cls-90{letter-spacing:-0.01em;}.cls-91{font-size:10.08px;}.cls-93{fill:#7dbe32;}.cls-95,.cls-96,.cls-99{font-size:11.56px;}.cls-95,.cls-97{letter-spacing:-0.05em;}.cls-98{letter-spacing:-0.05em;}.cls-99{letter-spacing:-0.05em;}.cls-100{letter-spacing:-0.07em;}.cls-101{letter-spacing:-0.05em;}.cls-102{letter-spacing:-0.05em;}.cls-103{letter-spacing:0em;}.cls-104{fill:#e5001c;}.cls-105{fill:#e3001e;}.cls-106,.cls-107{stroke:#e5001c;}.cls-106{stroke-width:1.09px;}.cls-108,.cls-112{font-size:7.79px;}.cls-109{letter-spacing:-0.1em;}.cls-110{letter-spacing:-0.06em;}.cls-111{letter-spacing:-0.05em;}.cls-112,.cls-115{letter-spacing:-0.1em;}.cls-113{letter-spacing:-0.06em;}.cls-114{letter-spacing:0em;}</style></defs><path class="cls-1" d="M180.91,424.12h-151A9.17,9.17,0,0,1,20.76,415V28.81a9.17,9.17,0,0,1,9.17-9.17h151a9.17,9.17,0,0,1,9.16,9.17V415a9.17,9.17,0,0,1-9.16,9.17"/><rect class="cls-2" x="20.76" y="19.64" width="169.31" height="404.47"/><path class="cls-1" d="M359.18,422.48H241.6a9,9,0,0,1-9-9V28.67a9,9,0,0,1,9-9H359.18a9,9,0,0,1,9,9V413.45a9,9,0,0,1-9,9"/><rect class="cls-2" x="232.57" y="19.64" width="135.64" height="402.84"/><path class="cls-1" d="M357.88,647.21H30.53a9.76,9.76,0,0,1-9.77-9.77V446.06a9.76,9.76,0,0,1,9.77-9.76H357.88a9.77,9.77,0,0,1,9.77,9.76V637.44a9.77,9.77,0,0,1-9.77,9.77"/><rect class="cls-2" x="20.76" y="436.3" width="346.88" height="210.91"/><path class="cls-1" d="M820.09,647.21H401.72a8.15,8.15,0,0,1-8.15-8.15V27.79a8.15,8.15,0,0,1,8.15-8.15H820.09a8.15,8.15,0,0,1,8.15,8.15V639.06a8.15,8.15,0,0,1-8.15,8.15"/><polyline class="cls-3" points="456.51 199.68 490.14 199.68 490.14 240.42"/><line class="cls-3" x1="207.18" y1="560.32" x2="207.18" y2="539.78"/><line class="cls-3" x1="191.67" y1="299.79" x2="164.55" y2="299.79"/><polyline class="cls-3" points="207.85 479.14 207.85 487.13 173.45 487.13"/><line class="cls-3" x1="424.5" y1="39.72" x2="346.73" y2="39.72"/><line class="cls-3" x1="512.1" y1="552.49" x2="498.06" y2="552.49"/><line class="cls-3" x1="703.98" y1="579.56" x2="737.13" y2="579.56"/><line class="cls-3" x1="662.82" y1="384.01" x2="623.08" y2="384.01"/><line class="cls-3" x1="485.06" y1="439.36" x2="485.06" y2="395.38"/><line class="cls-3" x1="606.51" y1="439.36" x2="606.51" y2="402.08"/><path class="cls-4" d="M819.5,209.56H740.78a6,6,0,0,1-6-6V116.64a6,6,0,0,1,6-6H819.5a6,6,0,0,1,6,6v86.91a6,6,0,0,1-6,6"/><path class="cls-4" d="M812.53,498H729.69a7.81,7.81,0,0,1-7.81-7.81V351.92a7.81,7.81,0,0,1,7.81-7.81h82.84a7.81,7.81,0,0,1,7.81,7.81V490.21a7.81,7.81,0,0,1-7.81,7.81"/><text class="cls-5" transform="translate(563.99 683.35)">Contols</text><text class="cls-6" transform="translate(563.99 694.81)">C01 : Primary DB authentication and schema</text><text class="cls-6" transform="translate(563.99 706.27)">C02 : External application user authentication</text><text class="cls-6" transform="translate(563.99 717.73)">C03 : One-way SSL</text><text class="cls-6" transform="translate(563.99 729.18)">C04 : Mutual SSL</text><text class="cls-6" transform="translate(563.99 740.64)">C05 : IP address restrictions</text><text class="cls-6" transform="translate(563.99 752.1)">C06 : Token validation (for Reports-4-U)</text><text class="cls-6" transform="translate(563.99 763.55)">C07 : Salted SHA-256 hash of user passwords</text><text class="cls-6" transform="translate(563.99 775.01)">C08 : Internal user Flash SWF ﬁle</text><text class="cls-6" transform="translate(563.99 786.46)">C09 : 90-day limit for report data</text><rect class="cls-7" x="553.87" y="663.9" width="227.25" height="188.55"/><rect class="cls-8" x="309.22" y="663.9" width="227.25" height="188.55"/><rect class="cls-9" x="64.56" y="663.9" width="227.25" height="188.55"/><text class="cls-5" transform="translate(75.45 683.35)">Ass<tspan class="cls-10" x="19.84" y="0">e</tspan><tspan x="26.07" y="0">ts</tspan></text><text class="cls-6" transform="translate(75.45 694.81)">A01 : Primary DB credentials</text><text class="cls-6" transform="translate(75.45 706.27)">A02 : Sensitive application data</text><text class="cls-6" transform="translate(75.45 717.73)">A03 : Session tickets</text><text class="cls-6" transform="translate(75.45 729.18)">A04 : Application username and password</text><text class="cls-6" transform="translate(75.45 740.64)">A05 : Application event tables</text><text class="cls-6" transform="translate(75.45 752.1)">A06 : Report data</text><text class="cls-6" transform="translate(75.45 763.55)">A07 : Coyote Data SFTP credentials</text><text class="cls-6" transform="translate(75.45 775.01)">A08 : Reports-4-U REST credentials</text><text class="cls-6" transform="translate(75.45 786.46)">A09 : VisiWidget API</text><text class="cls-6" transform="translate(75.45 797.92)">A10 : Active Directory username and password</text><text class="cls-6" transform="translate(75.45 809.38)">A11 : Special Flash functionality</text><text class="cls-6" transform="translate(75.45 820.84)">A12 : Client certiﬁcate for Thick-Client</text><text class="cls-6" transform="translate(75.45 832.29)">A13 : Application log ﬁle and event data</text><text class="cls-6" transform="translate(75.45 843.75)">A14 : Cached reporting data</text><text class="cls-5" transform="translate(318.69 683.35)">Threat Agents</text><text class="cls-6" transform="translate(318.69 694.81)">TA01 : Unauthorized external user</text><text class="cls-6" transform="translate(318.69 706.27)">TA02 : Authorized external application user</text><text class="cls-6" transform="translate(318.69 717.73)">TA03 : Unauthorized internal user</text><text class="cls-6" transform="translate(318.69 729.18)">TA04 : Authorized internal application user</text><text class="cls-6" transform="translate(318.69 740.64)">TA05 : Authorized internal system admin</text><text class="cls-6" transform="translate(318.69 752.1)">TA06 : Authorized internal DB admin</text><text class="cls-6" transform="translate(318.69 763.55)">TA07 : Authorized developer</text><text class="cls-11" transform="translate(30.14 416.47)">Internet</text><text class="cls-12" transform="translate(30.14 636.73)"><tspan class="cls-13">C</tspan><tspan x="8.17" y="0">orpo</tspan><tspan class="cls-14" x="34.35" y="0">r</tspan><tspan class="cls-15" x="38.64" y="0">a</tspan><tspan class="cls-16" x="45.56" y="0">te LAN</tspan></text><text class="cls-11" transform="translate(243.65 416.47)">DMZ</text><text class="cls-12" transform="translate(408.6 637.61)">D<tspan class="cls-15" x="8.41" y="0">a</tspan><tspan class="cls-16" x="15.33" y="0">ta Ce</tspan><tspan class="cls-17" x="44.83" y="0">n</tspan><tspan x="51.83" y="0">ter</tspan></text><text class="cls-18" transform="translate(748.44 196.81)">Legacy LAN</text><line class="cls-19" x1="652.3" y1="313.88" x2="626.2" y2="333.36"/><rect class="cls-4" x="410.04" y="530.91" width="88.85" height="43.05" rx="2.59"/><rect class="cls-4" x="582.8" y="129.02" width="99.39" height="43.05" rx="2.74"/><rect class="cls-20" x="744.04" y="118.5" width="72.19" height="57.53" rx="2.7"/><rect class="cls-4" x="251.42" y="563.59" width="99.42" height="66.3" rx="3.41"/><rect class="cls-4" x="190.62" y="512.72" width="106.45" height="33.07" rx="2.49"/><rect class="cls-4" x="566.02" y="487.08" width="80.97" height="114.45" rx="4.04"/><rect class="cls-4" x="729.09" y="526.82" width="88.85" height="99.41" rx="3.94"/><rect class="cls-4" x="478.95" y="230.02" width="152.01" height="177.47" rx="6.89"/><rect class="cls-4" x="266.31" y="222.83" width="84.51" height="118.03" rx="4.19"/><rect class="cls-4" x="266.31" y="31.29" width="84.51" height="37.9" rx="4.19"/><rect class="cls-4" x="37.32" y="109.96" width="144.26" height="111.93" rx="5.33"/><path class="cls-4" d="M42.94,251.89H176a5.61,5.61,0,0,1,5.61,5.61v113a5.62,5.62,0,0,1-5.62,5.62h-133a5.62,5.62,0,0,1-5.62-5.62v-113A5.62,5.62,0,0,1,42.94,251.89Z"/><rect class="cls-4" x="37.32" y="460.77" width="144.26" height="125.96" rx="5.65"/><rect class="cls-4" x="37.32" y="27.88" width="144.26" height="67.22" rx="4.13"/><line class="cls-21" x1="723" y1="147.68" x2="713.03" y2="126.31"/><line class="cls-21" x1="614.85" y1="192.63" x2="646.42" y2="192.63"/><line class="cls-3" x1="614.85" y1="178.5" x2="614.85" y2="257.34"/><polygon class="cls-22" points="611.2 179.57 614.85 173.24 618.51 179.57 611.2 179.57"/><line class="cls-3" x1="260.93" y1="299.79" x2="234.96" y2="299.79"/><polygon class="cls-22" points="259.86 296.13 266.19 299.79 259.86 303.45 259.86 296.13"/><line class="cls-3" x1="428.18" y1="284.5" x2="341.09" y2="284.5"/><line class="cls-3" x1="473.38" y1="284.5" x2="455.06" y2="284.5"/><polygon class="cls-22" points="472.31 280.84 478.64 284.5 472.31 288.15 472.31 280.84"/><line class="cls-3" x1="714.99" y1="384.01" x2="701.85" y2="384.01"/><polygon class="cls-22" points="713.92 380.36 720.25 384.01 713.92 387.67 713.92 380.36"/><line class="cls-3" x1="559.46" y1="552.49" x2="550.07" y2="552.49"/><polygon class="cls-22" points="558.39 548.83 564.72 552.49 558.39 556.14 558.39 548.83"/><line class="cls-3" x1="485.06" y1="526.45" x2="485.06" y2="455.25"/><polygon class="cls-22" points="488.72 525.38 485.06 531.71 481.41 525.38 488.72 525.38"/><line class="cls-3" x1="606.51" y1="481.93" x2="606.51" y2="453.74"/><polygon class="cls-22" points="610.17 479.27 606.51 485.6 602.85 479.27 610.17 479.27"/><polyline class="cls-3" points="261.34 326.78 207.84 326.78 207.84 459.25"/><polygon class="cls-22" points="260.27 323.12 266.6 326.78 260.27 330.44 260.27 323.12"/><line class="cls-3" x1="164.63" y1="199.68" x2="420.92" y2="199.68"/><polygon class="cls-22" points="165.7 203.33 159.37 199.68 165.7 196.02 165.7 203.33"/><line class="cls-3" x1="651.19" y1="579.56" x2="668.64" y2="579.56"/><polygon class="cls-22" points="654.35 583.22 648.02 579.56 654.35 575.91 654.35 583.22"/><polyline class="cls-3" points="716.58 449.09 631.1 449.09 631.1 500.9"/><polygon class="cls-22" points="713.92 445.44 720.25 449.09 713.92 452.75 713.92 445.44"/><polyline class="cls-3" points="245.08 597.15 207.18 597.15 207.18 577.8"/><polygon class="cls-22" points="242.41 593.5 248.74 597.15 242.41 600.81 242.41 593.5"/><polyline class="cls-3" points="331.44 517.26 331.44 497.03 440.77 497.03 440.77 371.74 492.96 371.74"/><line class="cls-3" x1="331.44" y1="558.24" x2="331.44" y2="535.07"/><polygon class="cls-22" points="335.09 555.58 331.44 561.91 327.78 555.58 335.09 555.58"/><polyline class="cls-3" points="576.6 224.45 576.6 39.72 461.98 39.72"/><polygon class="cls-22" points="580.25 223.38 576.6 229.71 572.94 223.38 580.25 223.38"/><line class="cls-3" x1="187.75" y1="44.27" x2="163.77" y2="44.27"/><line class="cls-3" x1="260.64" y1="44.27" x2="228.85" y2="44.27"/><polygon class="cls-22" points="259.57 40.61 265.9 44.27 259.57 47.92 259.57 40.61"/><line class="cls-3" x1="692.76" y1="147.74" x2="682.12" y2="147.74"/><line class="cls-3" x1="738.39" y1="147.74" x2="720.45" y2="147.74"/><polygon class="cls-22" points="737.32 144.08 743.66 147.74 737.32 151.4 737.32 144.08"/><polyline class="cls-3" points="460.24 72.13 557.97 72.13 557.97 260.93 576.77 260.93"/><line class="cls-3" x1="173.53" y1="72.13" x2="415.75" y2="72.13"/><polygon class="cls-22" points="174.6 75.78 168.27 72.13 174.6 68.47 174.6 75.78"/><polyline class="cls-3" points="465.74 155.85 550.91 155.85 550.91 311.41 572.18 311.41"/><line class="cls-3" x1="164.63" y1="155.85" x2="405.41" y2="155.85"/><polygon class="cls-22" points="165.7 159.51 159.37 155.85 165.7 152.2 165.7 159.51"/><polyline class="cls-3" points="316.49 456.34 316.49 442.77 401.98 442.77 401.98 355.88 480.69 355.88"/><polygon class="cls-22" points="479.62 359.53 485.95 355.88 479.62 352.22 479.62 359.53"/><polyline class="cls-3" points="275.06 513.79 275.06 505.7 316.49 505.7 316.49 487.47"/><polygon class="cls-22" points="278.72 512.72 275.06 519.05 271.41 512.72 278.72 512.72"/><line class="cls-19" x1="647.61" y1="261.98" x2="611.96" y2="262.91"/><polygon class="cls-23" points="645.86 256.54 655.5 261.77 646.15 267.5 645.86 256.54"/><line class="cls-19" x1="575.33" y1="525.55" x2="552.38" y2="503.52"/><line class="cls-19" x1="561.39" y1="459.14" x2="587.9" y2="517.26"/><line class="cls-19" x1="579.78" y1="517.35" x2="561.65" y2="487.15"/><polygon class="cls-23" points="583.65 513.15 583.84 524.12 574.25 518.8 583.65 513.15"/><line class="cls-19" x1="648.62" y1="244.58" x2="609.67" y2="256.04"/><line class="cls-19" x1="651.13" y1="352.83" x2="616.47" y2="362.96"/><path class="cls-24" d="M773.55,546.59c-17.58,0-31.94-2.14-33.23-4.85a1.17,1.17,0,0,0-.16.54v36c0,3.1,14.94,5.61,33.36,5.61s33.34-2.51,33.34-5.61v-36a1.11,1.11,0,0,0-.12-.43c-1.62,2.66-15.85,4.74-33.19,4.74"/><path class="cls-25" d="M806.14,542.43c0,2.68-14.68,4.86-32.78,4.86s-32.78-2.18-32.78-4.86,14.68-4.85,32.78-4.85,32.78,2.17,32.78,4.85"/><ellipse class="cls-26" cx="773.36" cy="542.43" rx="32.78" ry="4.86"/><path class="cls-24" d="M606.1,517c-17.58,0-31.94-2.14-33.23-4.85a1.24,1.24,0,0,0-.16.54v36c0,3.1,14.94,5.61,33.36,5.61s33.34-2.51,33.34-5.61v-36a1.11,1.11,0,0,0-.12-.43c-1.62,2.66-15.85,4.74-33.19,4.74"/><path class="cls-25" d="M638.85,512.82c0,2.69-14.68,4.86-32.78,4.86s-32.78-2.17-32.78-4.86S588,508,606.07,508s32.78,2.17,32.78,4.85"/><path class="cls-26" d="M638.85,512.82c0,2.69-14.68,4.86-32.78,4.86s-32.78-2.17-32.78-4.86S588,508,606.07,508,638.85,510.14,638.85,512.82Z"/><path class="cls-24" d="M771.15,394.62c-17.58,0-31.95-2.14-33.23-4.85a1.12,1.12,0,0,0-.16.54v36c0,3.09,14.94,5.6,33.35,5.6s33.35-2.51,33.35-5.6v-36a1.11,1.11,0,0,0-.12-.42c-1.62,2.65-15.85,4.73-33.19,4.73"/><path class="cls-25" d="M803.89,390.47c0,2.68-14.67,4.85-32.78,4.85s-32.78-2.17-32.78-4.85,14.68-4.86,32.78-4.86,32.78,2.17,32.78,4.86"/><ellipse class="cls-26" cx="771.11" cy="390.47" rx="32.78" ry="4.86"/><text class="cls-27" transform="translate(419.58 76.39)"><tspan class="cls-28">H</tspan><tspan class="cls-29" x="7.82" y="0">TTP</tspan><tspan x="28.5" y="0">S</tspan></text><text class="cls-27" transform="translate(431.37 287.9)"><tspan class="cls-29">TC</tspan><tspan x="14" y="0">P</tspan></text><text class="cls-27" transform="translate(425.44 204.17)"><tspan class="cls-30">S</tspan><tspan class="cls-31" x="6.74" y="0">F</tspan><tspan class="cls-29" x="12.67" y="0">T</tspan><tspan x="19.46" y="0">P</tspan></text><text class="cls-27" transform="translate(410.57 159.22)"><tspan class="cls-30">S</tspan><tspan class="cls-32" x="6.74" y="0">O</tspan><tspan class="cls-30" x="14.13" y="0">A</tspan><tspan class="cls-33" x="21.57" y="0">P</tspan><tspan class="cls-34" x="28.15" y="0">/</tspan><tspan class="cls-30" x="31.81" y="0">SS</tspan><tspan x="45.29" y="0">L</tspan></text><text class="cls-27" transform="translate(474.22 451.65)"><tspan class="cls-29">TC</tspan><tspan x="14" y="0">P</tspan></text><text class="cls-27" transform="translate(695.43 152.17)"><tspan class="cls-29">TC</tspan><tspan x="14" y="0">P</tspan></text><text class="cls-27" transform="translate(668 388.36)"><tspan class="cls-30">O</tspan><tspan class="cls-28" x="7.64" y="0">D</tspan><tspan class="cls-30" x="14.79" y="0">B</tspan><tspan x="21.81" y="0">C</tspan></text><text class="cls-27" transform="translate(591.71 450.06)"><tspan class="cls-30">O</tspan><tspan class="cls-28" x="7.64" y="0">D</tspan><tspan class="cls-30" x="14.79" y="0">B</tspan><tspan x="21.81" y="0">C</tspan></text><text class="cls-27" transform="translate(673.27 445.65)"><tspan class="cls-30">Fil</tspan><tspan x="11.09" y="0">e</tspan></text><text class="cls-35" transform="translate(662.82 459.95)">t<tspan class="cls-36" x="3.44" y="0">r</tspan><tspan class="cls-28" x="7.14" y="0">a</tspan><tspan x="12.94" y="0">ns</tspan><tspan class="cls-28" x="24.57" y="0">fe</tspan><tspan class="cls-37" x="34.09" y="0">r</tspan></text><text class="cls-27" transform="translate(516.19 556.7)"><tspan class="cls-30">O</tspan><tspan class="cls-28" x="7.64" y="0">D</tspan><tspan class="cls-30" x="14.79" y="0">B</tspan><tspan x="21.81" y="0">C</tspan></text><text class="cls-27" transform="translate(671.86 584.02)"><tspan class="cls-30">O</tspan><tspan class="cls-28" x="7.64" y="0">D</tspan><tspan class="cls-30" x="14.79" y="0">B</tspan><tspan x="21.81" y="0">C</tspan></text><text class="cls-38" transform="translate(195.19 303.82)">H<tspan class="cls-30" x="7.82" y="0">TTP</tspan><tspan class="cls-39" x="28.5" y="0">S</tspan></text><text class="cls-38" transform="translate(192 113.93)">H<tspan class="cls-30" x="7.82" y="0">TTP</tspan><tspan class="cls-39" x="28.5" y="0">S</tspan></text><text class="cls-27" transform="translate(191.52 42.32)"><tspan class="cls-30">S</tspan><tspan class="cls-40" x="6.74" y="0">O</tspan><tspan class="cls-30" x="14.13" y="0">A</tspan><tspan class="cls-41" x="21.57" y="0">P</tspan><tspan x="28.15" y="0">/</tspan></text><text class="cls-27" transform="translate(200.4 54.24)"><tspan class="cls-30">SS</tspan><tspan x="13.48" y="0">L</tspan></text><text class="cls-27" transform="translate(428.18 43.69)"><tspan class="cls-30">S</tspan><tspan class="cls-32" x="6.74" y="0">O</tspan><tspan class="cls-30" x="14.13" y="0">A</tspan><tspan x="21.57" y="0">P</tspan></text><text class="cls-38" transform="translate(189.25 473.39)">H<tspan class="cls-30" x="7.82" y="0">TTP</tspan><tspan class="cls-39" x="28.5" y="0">S</tspan></text><text class="cls-38" transform="translate(312.05 530.32)">H<tspan class="cls-30" x="7.82" y="0">TTP</tspan><tspan class="cls-39" x="28.5" y="0">S</tspan></text><text class="cls-27" transform="translate(197.34 573.02)"><tspan class="cls-30">SS</tspan><tspan x="13.48" y="0">L</tspan></text><text class="cls-27" transform="translate(297.97 469.69)"><tspan class="cls-42">M</tspan><tspan class="cls-28" x="9.85" y="0">u</tspan><tspan class="cls-30" x="15.93" y="0">t</tspan><tspan class="cls-28" x="19.37" y="0">ua</tspan><tspan x="31.23" y="0">l</tspan></text><text class="cls-27" transform="translate(307.3 483.99)"><tspan class="cls-30">SS</tspan><tspan x="13.48" y="0">L</tspan></text><text class="cls-43" transform="translate(47.66 45.54)"><tspan class="cls-44">Re</tspan><tspan class="cls-45" x="15.09" y="0">p</tspan><tspan class="cls-44" x="22.46" y="0">ort</tspan><tspan class="cls-46" x="38.45" y="0">s</tspan><tspan class="cls-44" x="45.2" y="0">-4</tspan><tspan class="cls-45" x="56.05" y="0">-</tspan><tspan x="59.5" y="0">U</tspan></text><text class="cls-43" transform="translate(47.66 128.47)"><tspan class="cls-47">C</tspan><tspan class="cls-48" x="8.41" y="0">o</tspan><tspan class="cls-49" x="15.77" y="0">yo</tspan><tspan class="cls-45" x="29.21" y="0">t</tspan><tspan class="cls-44" x="33.36" y="0">e </tspan><tspan class="cls-45" x="43.39" y="0">D</tspan><tspan class="cls-50" x="52.06" y="0">a</tspan><tspan class="cls-45" x="59.12" y="0">t</tspan><tspan x="63.27" y="0">a</tspan></text><text class="cls-43" transform="translate(47.66 269.31)"><tspan class="cls-51">B</tspan><tspan class="cls-52" x="8.23" y="0">r</tspan><tspan class="cls-53" x="12.41" y="0">o</tspan><tspan class="cls-54" x="19.81" y="0">w</tspan><tspan class="cls-45" x="29.76" y="0">se</tspan><tspan x="43.45" y="0">r</tspan></text><text class="cls-43" transform="translate(47.66 480.59)"><tspan class="cls-51">B</tspan><tspan class="cls-52" x="8.23" y="0">r</tspan><tspan class="cls-53" x="12.41" y="0">o</tspan><tspan class="cls-54" x="19.81" y="0">w</tspan><tspan class="cls-45" x="29.76" y="0">se</tspan><tspan x="43.45" y="0">r</tspan></text><text class="cls-43" transform="translate(292.68 277.26)"><tspan class="cls-44">We</tspan><tspan x="18.82" y="0">b</tspan></text><text class="cls-43" transform="translate(287.04 290.09)"><tspan class="cls-44">Serv</tspan><tspan class="cls-45" x="25.43" y="0">e</tspan><tspan x="32.37" y="0">r</tspan></text><text class="cls-55" transform="translate(298.55 48.33)">W<tspan class="cls-56" x="11.87" y="0">S</tspan></text><text class="cls-55" transform="translate(283.22 61.16)">G<tspan class="cls-57" x="9.03" y="0">a</tspan><tspan class="cls-45" x="16.1" y="0">t</tspan><tspan x="20.25" y="0">e</tspan><tspan class="cls-58" x="27.2" y="0">w</tspan><tspan class="cls-59" x="37.13" y="0">a</tspan><tspan class="cls-56" x="44.19" y="0">y</tspan></text><text class="cls-60" transform="translate(419.12 557.77)">V<tspan class="cls-61" x="8.4" y="0">isiWi</tspan><tspan x="36.05" y="0">d</tspan><tspan class="cls-61" x="43.46" y="0">g</tspan><tspan class="cls-54" x="50.84" y="0">e</tspan><tspan class="cls-62" x="57.74" y="0">t</tspan></text><text class="cls-43" transform="translate(757.42 447.27)"><tspan class="cls-45">D</tspan><tspan class="cls-57" x="8.67" y="0">a</tspan><tspan class="cls-44" x="15.74" y="0">t</tspan><tspan x="19.9" y="0">a</tspan></text><text class="cls-63" transform="translate(738.21 460.1)">W<tspan class="cls-44" x="11.36" y="0">are</tspan><tspan class="cls-45" x="29.78" y="0">h</tspan><tspan class="cls-44" x="37.01" y="0">o</tspan><tspan class="cls-45" x="44.52" y="0">u</tspan><tspan class="cls-64" x="51.76" y="0">s</tspan><tspan class="cls-62" x="58.52" y="0">e</tspan></text><text class="cls-43" transform="translate(493.57 398.69)"><tspan class="cls-44">A</tspan><tspan class="cls-45" x="8.64" y="0">pp</tspan><tspan class="cls-44" x="23.38" y="0">li</tspan><tspan class="cls-65" x="29.39" y="0">c</tspan><tspan class="cls-66" x="36.19" y="0">a</tspan><tspan class="cls-45" x="43.25" y="0">t</tspan><tspan class="cls-44" x="47.4" y="0">io</tspan><tspan class="cls-45" x="57.92" y="0">n</tspan><tspan class="cls-44" x="65.16" y="0" xml:space="preserve"> S</tspan><tspan class="cls-67" x="76.06" y="0">e</tspan><tspan class="cls-44" x="83" y="0">rv</tspan><tspan class="cls-67" x="93.65" y="0">e</tspan><tspan x="100.59" y="0">r</tspan></text><text class="cls-55" transform="translate(595.67 155.86)">WS-L<tspan class="cls-67" x="30.23" y="0">e</tspan><tspan x="37.17" y="0">gac</tspan><tspan class="cls-68" x="58.56" y="0">y</tspan></text><text class="cls-69" transform="translate(759.18 143.88)">Legac<tspan class="cls-68" x="35.42" y="0">y</tspan></text><text class="cls-70" transform="translate(758.29 158.56)">S<tspan class="cls-66" x="7.69" y="0">y</tspan><tspan class="cls-64" x="13.78" y="0">st</tspan><tspan class="cls-67" x="24.7" y="0">e</tspan><tspan class="cls-68" x="31.64" y="0">m</tspan></text><text class="cls-69" transform="translate(745.31 599.88)">Re<tspan class="cls-45" x="15.09" y="0">po</tspan><tspan class="cls-44" x="29.96" y="0">rtin</tspan><tspan class="cls-62" x="48.7" y="0">g</tspan></text><text class="cls-55" transform="translate(745.01 612.71)">DB S<tspan class="cls-67" x="27.82" y="0">e</tspan><tspan x="34.75" y="0">rve</tspan><tspan class="cls-62" x="52.36" y="0">r</tspan></text><text class="cls-43" transform="translate(580.74 569.17)"><tspan class="cls-44">Primar</tspan><tspan x="38.86" y="0">y</tspan></text><text class="cls-43" transform="translate(573.75 582)"><tspan class="cls-44">D</tspan><tspan class="cls-45" x="8.69" y="0">B</tspan><tspan class="cls-44" x="16.9" y="0" xml:space="preserve"> S</tspan><tspan class="cls-67" x="27.8" y="0">e</tspan><tspan class="cls-44" x="34.74" y="0">rve</tspan><tspan x="52.35" y="0">r</tspan></text><text class="cls-43" transform="translate(282.43 587.95)"><tspan class="cls-44">Singl</tspan><tspan x="28.48" y="0">e</tspan></text><text class="cls-43" transform="translate(276.55 600.78)"><tspan class="cls-44">Sign</tspan><tspan class="cls-45" x="25.47" y="0">-</tspan><tspan class="cls-51" x="28.92" y="0">o</tspan><tspan x="36.43" y="0">n</tspan></text><text class="cls-43" transform="translate(281.5 613.61)"><tspan class="cls-44">Serv</tspan><tspan class="cls-45" x="25.43" y="0">e</tspan><tspan x="32.37" y="0">r</tspan></text><text class="cls-43" transform="translate(209.92 534.05)"><tspan class="cls-58">T</tspan><tspan class="cls-51" x="7.8" y="0">hic</tspan><tspan class="cls-71" x="24.92" y="0">k</tspan><tspan class="cls-45" x="31.17" y="0">-</tspan><tspan class="cls-44" x="34.62" y="0">Clie</tspan><tspan class="cls-72" x="56.21" y="0">n</tspan><tspan x="63.35" y="0">t</tspan></text><rect class="cls-24" x="65.19" y="60.22" width="101.79" height="25.08" rx="12.28"/><rect class="cls-24" x="65.19" y="143.07" width="92.63" height="25.08" rx="12.28"/><rect class="cls-24" x="65.19" y="173.66" width="92.63" height="25.08" rx="12.28"/><rect class="cls-24" x="65.19" y="287.08" width="92.63" height="25.08" rx="12.28"/><rect class="cls-24" x="65.19" y="318.55" width="92.63" height="25.08" rx="12.28"/><rect class="cls-24" x="65.19" y="499.05" width="92.63" height="25.08" rx="12.28"/><rect class="cls-24" x="65.19" y="530.52" width="92.63" height="25.08" rx="12.28"/><rect class="cls-24" x="488.05" y="244.09" width="56.01" height="39.43" rx="11.98"/><rect class="cls-24" x="486.62" y="293.3" width="56.01" height="39.43" rx="11.98"/><text class="cls-73" transform="translate(489.9 356.81)"><tspan class="cls-74">S</tspan><tspan class="cls-75" x="6.33" y="0">e</tspan><tspan class="cls-74" x="12.54" y="0">s</tspan><tspan class="cls-75" x="17.55" y="0">s</tspan><tspan class="cls-76" x="22.55" y="0">i</tspan><tspan class="cls-77" x="25.23" y="0">o</tspan><tspan class="cls-74" x="31.68" y="0">n</tspan><tspan x="38.67" y="0"> </tspan></text><path class="cls-78" d="M494.25,350.6a2.58,2.58,0,0,1,.89.48l.66-.94a3.84,3.84,0,0,0-1.2-.65,4.51,4.51,0,0,0-1.4-.23,3,3,0,0,0-1.84.55,1.84,1.84,0,0,0-.74,1.58,1.78,1.78,0,0,0,.65,1.52,3,3,0,0,0,.75.42,10,10,0,0,0,1.23.36,3.66,3.66,0,0,1,1.14.43.76.76,0,0,1,.34.67.8.8,0,0,1-.36.68,1.51,1.51,0,0,1-.95.26,3.51,3.51,0,0,1-2.32-1l-.78.94a4.51,4.51,0,0,0,3.07,1.19,2.91,2.91,0,0,0,1.91-.6,1.94,1.94,0,0,0,.72-1.57,1.81,1.81,0,0,0-.57-1.45,3.89,3.89,0,0,0-1.71-.77,5.4,5.4,0,0,1-1.48-.52.76.76,0,0,1-.35-.68.75.75,0,0,1,.35-.67,1.61,1.61,0,0,1,.89-.22A3.31,3.31,0,0,1,494.25,350.6Z"/><path class="cls-78" d="M498.57,352.52a1.92,1.92,0,0,1,1.17-.39,1.59,1.59,0,0,1,1.09.38,1.32,1.32,0,0,1,.44,1.08h-3.21A1.29,1.29,0,0,1,498.57,352.52Zm3.88,1.19a2.35,2.35,0,0,0-.8-1.9,3,3,0,0,0-3.93.08,2.73,2.73,0,0,0-.84,2.11,2.79,2.79,0,0,0,.82,2.11,2.83,2.83,0,0,0,2,.78,3.11,3.11,0,0,0,2.36-.94l-.67-.73a2,2,0,0,1-1.6.66,1.94,1.94,0,0,1-1.18-.38,1.24,1.24,0,0,1-.56-1h4.39Z"/><path class="cls-78" d="M507,354a2.88,2.88,0,0,0-.54-.29,3.84,3.84,0,0,0-.51-.19,5,5,0,0,0-.6-.17,2.9,2.9,0,0,1-.53-.18.42.42,0,0,1-.28-.4.5.5,0,0,1,.26-.46,1.41,1.41,0,0,1,.69-.15,2.68,2.68,0,0,1,1.49.45l.44-.88a3.28,3.28,0,0,0-1.84-.56,2.5,2.5,0,0,0-1.57.46,1.5,1.5,0,0,0-.61,1.25c0,.74.59,1.27,1.75,1.58l.13,0c.74.22,1.12.47,1.12.76a.56.56,0,0,1-.24.46.93.93,0,0,1-.63.19,3.22,3.22,0,0,1-1.9-.74l-.57.92a4.08,4.08,0,0,0,1.17.62,3.9,3.9,0,0,0,1.27.22,2.28,2.28,0,0,0,1.49-.48,1.6,1.6,0,0,0,.58-1.28A1.32,1.32,0,0,0,507,354Z"/><path class="cls-78" d="M512.19,354a3.17,3.17,0,0,0-.53-.29,5.27,5.27,0,0,0-.51-.19,5.79,5.79,0,0,0-.61-.17,3.2,3.2,0,0,1-.53-.18.44.44,0,0,1-.28-.4.49.49,0,0,1,.27-.46,1.37,1.37,0,0,1,.68-.15,2.66,2.66,0,0,1,1.49.45l.44-.88a3.23,3.23,0,0,0-1.83-.56,2.53,2.53,0,0,0-1.58.46,1.52,1.52,0,0,0-.6,1.25c0,.74.58,1.27,1.75,1.58l.12,0c.75.22,1.12.47,1.12.76a.58.58,0,0,1-.23.46,1,1,0,0,1-.63.19,3.2,3.2,0,0,1-1.9-.74l-.57.92a4.08,4.08,0,0,0,1.17.62,3.86,3.86,0,0,0,1.27.22,2.23,2.23,0,0,0,1.48-.48,1.57,1.57,0,0,0,.58-1.28A1.32,1.32,0,0,0,512.19,354Z"/><path class="cls-78" d="M514.54,350.3a.75.75,0,0,0,.75-.75.69.69,0,0,0-.22-.52.71.71,0,0,0-.53-.22.69.69,0,0,0-.52.22.7.7,0,0,0-.23.52.72.72,0,0,0,.23.53A.69.69,0,0,0,514.54,350.3Zm.58.9h-1.18v5.61h1.18Z"/><path class="cls-78" d="M522.2,354a2.78,2.78,0,0,0-.84-2.05,3.08,3.08,0,0,0-4.21,0,2.9,2.9,0,0,0,0,4.1,3.06,3.06,0,0,0,4.21,0A2.78,2.78,0,0,0,522.2,354Zm-4.72,0a1.82,1.82,0,0,1,.5-1.32,1.72,1.72,0,0,1,1.27-.51,1.69,1.69,0,0,1,1.27.51A1.78,1.78,0,0,1,521,354a1.8,1.8,0,0,1-.5,1.33,1.69,1.69,0,0,1-1.27.51,1.72,1.72,0,0,1-1.27-.51A1.84,1.84,0,0,1,517.48,354Z"/><path class="cls-78" d="M525,352.58a1.54,1.54,0,0,1,1.06-.4c.86,0,1.29.52,1.29,1.55v3.08h1.18v-3.44a2.27,2.27,0,0,0-.58-1.68,2.13,2.13,0,0,0-1.54-.58,2.1,2.1,0,0,0-1.08.3,2.17,2.17,0,0,0-.78.81v-1h-1.18v5.61h1.18v-3A1.54,1.54,0,0,1,525,352.58Z"/><text class="cls-73" transform="translate(493.68 369.45)"><tspan class="cls-74">Mgm</tspan><tspan x="28.04" y="0">t</tspan></text><polygon class="cls-78" points="495.95 363.7 498.51 368.81 499.21 368.81 501.78 363.7 501.78 369.46 503.02 369.46 503.02 362.09 501.09 362.09 498.87 366.72 496.65 362.09 494.7 362.09 494.7 369.46 495.95 369.46 495.95 363.7"/><path class="cls-78" d="M506,365.23a1.42,1.42,0,0,1,1.14-.52,1.51,1.51,0,0,1,1.17.5,1.79,1.79,0,0,1,.46,1.23,1.69,1.69,0,0,1-.45,1.2,1.5,1.5,0,0,1-1.17.49,1.44,1.44,0,0,1-1.15-.5,1.76,1.76,0,0,1-.43-1.19A1.81,1.81,0,0,1,506,365.23Zm2.77-1.38v.83a2.19,2.19,0,0,0-1.81-.92,2.38,2.38,0,0,0-1.83.78,3,3,0,0,0,0,3.88,2.38,2.38,0,0,0,1.83.78,2.12,2.12,0,0,0,1.1-.29,2.06,2.06,0,0,0,.76-.79v.71a1.75,1.75,0,0,1-.49,1.38,1.94,1.94,0,0,1-1.33.44,2.72,2.72,0,0,1-1.66-.63l-.56.9a3.64,3.64,0,0,0,2.29.79,3,3,0,0,0,2.07-.74,2.89,2.89,0,0,0,.81-2.23v-4.89Z"/><path class="cls-78" d="M513.11,365.23a1.54,1.54,0,0,1,1.06-.4,1.06,1.06,0,0,1,.9.37,2,2,0,0,1,.28,1.18v3.08h1.19v-3.12a1.42,1.42,0,0,1,.47-1.13,1.55,1.55,0,0,1,1-.38c.86,0,1.29.52,1.29,1.55v3.08h1.18V366a2.28,2.28,0,0,0-.59-1.68,2.11,2.11,0,0,0-1.53-.58,2.53,2.53,0,0,0-2.08,1.1,1.77,1.77,0,0,0-1.8-1.1,2.14,2.14,0,0,0-1.1.3,1.85,1.85,0,0,0-.76.81v-1h-1.18v5.61h1.18v-3A1.52,1.52,0,0,1,513.11,365.23Z"/><path class="cls-78" d="M524.94,364.8v-.95h-1.48v-1.76h-1.18v1.76h-.71v.95h.71v2.81a1.91,1.91,0,0,0,.53,1.41,1.78,1.78,0,0,0,1.29.52,2,2,0,0,0,1.37-.56l-.48-.83a1,1,0,0,1-.73.37.75.75,0,0,1-.59-.24.93.93,0,0,1-.21-.64V364.8Z"/><rect class="cls-24" x="486.62" y="341.23" width="56.01" height="39.43" rx="11.98"/><rect class="cls-24" x="566.47" y="244.18" width="56.01" height="39.43" rx="11.98"/><rect class="cls-24" x="565.04" y="293.39" width="56.01" height="39.43" rx="11.98"/><text class="cls-73" transform="translate(568.32 356.9)"><tspan class="cls-74">S</tspan><tspan class="cls-75" x="6.33" y="0">e</tspan><tspan class="cls-74" x="12.54" y="0">s</tspan><tspan class="cls-75" x="17.55" y="0">s</tspan><tspan class="cls-76" x="22.55" y="0">i</tspan><tspan class="cls-77" x="25.23" y="0">o</tspan><tspan class="cls-74" x="31.68" y="0">n</tspan><tspan x="38.67" y="0"> </tspan></text><path class="cls-78" d="M572.67,350.7a2.42,2.42,0,0,1,.89.48l.66-.94a3.65,3.65,0,0,0-1.2-.65,4.28,4.28,0,0,0-1.4-.23,3,3,0,0,0-1.84.55,1.84,1.84,0,0,0-.75,1.58,1.76,1.76,0,0,0,.66,1.51,2.57,2.57,0,0,0,.74.43,10.79,10.79,0,0,0,1.24.36,3.43,3.43,0,0,1,1.14.43.77.77,0,0,1,.33.66.79.79,0,0,1-.35.69,1.6,1.6,0,0,1-.95.26,3.47,3.47,0,0,1-2.32-1l-.78.94a4.49,4.49,0,0,0,3.07,1.19,2.88,2.88,0,0,0,1.9-.6,1.93,1.93,0,0,0,.73-1.57,1.83,1.83,0,0,0-.57-1.46,4.26,4.26,0,0,0-1.71-.77,5,5,0,0,1-1.48-.51.78.78,0,0,1-.35-.68.74.74,0,0,1,.35-.67,1.59,1.59,0,0,1,.89-.22A3.31,3.31,0,0,1,572.67,350.7Z"/><path class="cls-78" d="M577,352.62a1.84,1.84,0,0,1,1.17-.4,1.64,1.64,0,0,1,1.09.38,1.39,1.39,0,0,1,.44,1.09h-3.22A1.29,1.29,0,0,1,577,352.62Zm3.88,1.18a2.4,2.4,0,0,0-.8-1.9,2.89,2.89,0,0,0-2-.69,2.81,2.81,0,0,0-2,.78,2.7,2.7,0,0,0-.85,2.1,2.77,2.77,0,0,0,2.84,2.9,3.15,3.15,0,0,0,2.36-.94l-.67-.74a2.16,2.16,0,0,1-2.79.29,1.3,1.3,0,0,1-.56-1h4.4Z"/><path class="cls-78" d="M585.43,354.05a2.92,2.92,0,0,0-.53-.3c-.16-.07-.34-.13-.51-.19l-.61-.17a2.55,2.55,0,0,1-.53-.17.43.43,0,0,1-.27-.41.52.52,0,0,1,.26-.46,1.41,1.41,0,0,1,.69-.15,2.56,2.56,0,0,1,1.48.46l.45-.88a3.29,3.29,0,0,0-1.84-.57,2.49,2.49,0,0,0-1.57.47,1.49,1.49,0,0,0-.61,1.25c0,.74.58,1.27,1.75,1.58l.13,0c.74.23,1.11.48,1.11.76a.58.58,0,0,1-.23.47,1,1,0,0,1-.63.19,3.2,3.2,0,0,1-1.9-.74l-.57.92a4.08,4.08,0,0,0,1.17.62,4.19,4.19,0,0,0,1.27.22,2.23,2.23,0,0,0,1.48-.48,1.57,1.57,0,0,0,.58-1.28A1.31,1.31,0,0,0,585.43,354.05Z"/><path class="cls-78" d="M590.61,354.05a3.29,3.29,0,0,0-.53-.3l-.52-.19-.6-.17a2.36,2.36,0,0,1-.53-.17.42.42,0,0,1-.28-.41.51.51,0,0,1,.27-.46,1.34,1.34,0,0,1,.68-.15,2.59,2.59,0,0,1,1.49.46l.44-.88a3.29,3.29,0,0,0-1.83-.57,2.54,2.54,0,0,0-1.58.47,1.5,1.5,0,0,0-.6,1.25c0,.74.58,1.27,1.75,1.58l.12,0c.75.23,1.12.48,1.12.76a.58.58,0,0,1-.23.47,1,1,0,0,1-.64.19,3.17,3.17,0,0,1-1.89-.74l-.57.92a4,4,0,0,0,1.16.62,4.19,4.19,0,0,0,1.27.22,2.26,2.26,0,0,0,1.49-.48,1.6,1.6,0,0,0,.58-1.28A1.31,1.31,0,0,0,590.61,354.05Z"/><path class="cls-78" d="M593,350.4a.73.73,0,0,0,.53-.22.75.75,0,0,0,.22-.53.73.73,0,0,0-.22-.52.73.73,0,0,0-1.06,0,.73.73,0,0,0-.22.52.75.75,0,0,0,.22.53A.73.73,0,0,0,593,350.4Zm.58.9h-1.18v5.6h1.18Z"/><path class="cls-78" d="M600.62,354.1a2.78,2.78,0,0,0-.84-2.05,3.07,3.07,0,0,0-4.22,0,2.92,2.92,0,0,0,0,4.1,3.07,3.07,0,0,0,4.22,0A2.78,2.78,0,0,0,600.62,354.1Zm-4.72,0a1.82,1.82,0,0,1,.5-1.32,1.84,1.84,0,0,1,2.54,0,2,2,0,0,1,0,2.64,1.84,1.84,0,0,1-2.54,0A1.82,1.82,0,0,1,595.9,354.1Z"/><path class="cls-78" d="M603.44,352.68a1.52,1.52,0,0,1,1.06-.4c.86,0,1.29.51,1.29,1.55v3.07H607v-3.43a2.28,2.28,0,0,0-.59-1.68,2.11,2.11,0,0,0-1.53-.58,2.16,2.16,0,0,0-1.87,1.11v-1H601.8v5.6H603v-3A1.5,1.5,0,0,1,603.44,352.68Z"/><text class="cls-73" transform="translate(572.1 369.55)"><tspan class="cls-74">Mgm</tspan><tspan x="28.04" y="0">t</tspan></text><polygon class="cls-78" points="574.37 363.8 576.93 368.91 577.62 368.91 580.2 363.8 580.2 369.55 581.44 369.55 581.44 362.19 579.51 362.19 577.29 366.81 575.06 362.19 573.12 362.19 573.12 369.55 574.37 369.55 574.37 363.8"/><path class="cls-78" d="M584.39,365.33a1.41,1.41,0,0,1,1.15-.52,1.51,1.51,0,0,1,1.17.5,1.75,1.75,0,0,1,.45,1.22,1.71,1.71,0,0,1-.45,1.21,1.51,1.51,0,0,1-1.17.49,1.43,1.43,0,0,1-1.15-.51,1.78,1.78,0,0,1-.42-1.19A1.83,1.83,0,0,1,584.39,365.33Zm2.77-1.39v.84a2.16,2.16,0,0,0-1.81-.92,2.35,2.35,0,0,0-1.82.78,3,3,0,0,0,0,3.88,2.37,2.37,0,0,0,1.83.78,2.06,2.06,0,0,0,1.1-.3,1.9,1.9,0,0,0,.75-.79v.72a1.78,1.78,0,0,1-.48,1.38,1.94,1.94,0,0,1-1.33.43,2.68,2.68,0,0,1-1.66-.62l-.56.9a3.67,3.67,0,0,0,2.28.79,3,3,0,0,0,2.08-.74,2.92,2.92,0,0,0,.8-2.23v-4.9Z"/><path class="cls-78" d="M591.53,365.33a1.52,1.52,0,0,1,1.06-.4,1.06,1.06,0,0,1,.9.37,2,2,0,0,1,.28,1.18v3.07H595v-3.12a1.48,1.48,0,0,1,.47-1.12,1.54,1.54,0,0,1,1.05-.38c.86,0,1.29.51,1.29,1.55v3.07h1.18v-3.43a2.28,2.28,0,0,0-.59-1.68,2.07,2.07,0,0,0-1.53-.58,2.53,2.53,0,0,0-2.08,1.1,1.79,1.79,0,0,0-1.8-1.1,2.14,2.14,0,0,0-1.1.3,1.83,1.83,0,0,0-.77.81v-1h-1.18v5.61h1.18v-3A1.5,1.5,0,0,1,591.53,365.33Z"/><path class="cls-78" d="M603.35,364.89V364h-1.47v-1.77H600.7V364H600v.94h.71v2.82a1.87,1.87,0,0,0,.53,1.41,1.78,1.78,0,0,0,1.28.52,2,2,0,0,0,1.38-.56l-.49-.84a1,1,0,0,1-.72.37.76.76,0,0,1-.59-.23.93.93,0,0,1-.21-.64v-2.85Z"/><rect class="cls-24" x="565.04" y="341.33" width="56.01" height="39.43" rx="11.98"/><text class="cls-79" transform="translate(72.8 76.27)">JSON/RES<tspan class="cls-80" x="53.86" y="0">T</tspan><tspan class="cls-81" x="59.32" y="0">-</tspan><tspan x="63.23" y="0">API</tspan></text><text class="cls-79" transform="translate(91.02 159.12)">WS<tspan class="cls-82" x="18.19" y="0">-</tspan><tspan x="22.09" y="0">API</tspan></text><text class="cls-79" transform="translate(85.85 189.72)">FTP-D<tspan class="cls-83" x="33.02" y="0">r</tspan><tspan x="37.15" y="0">op</tspan></text><text class="cls-79" transform="translate(97.68 303.13)">Flash</text><text class="cls-79" transform="translate(83.86 334.61)"><tspan class="cls-84">J</tspan><tspan class="cls-85" x="5.21" y="0">a</tspan><tspan class="cls-86" x="11.37" y="0">v</tspan><tspan class="cls-87" x="17.02" y="0">a</tspan><tspan x="23.2" y="0">Script</tspan></text><text class="cls-79" transform="translate(97.68 515.1)">Flash</text><text class="cls-79" transform="translate(83.86 546.57)"><tspan class="cls-84">J</tspan><tspan class="cls-85" x="5.21" y="0">a</tspan><tspan class="cls-86" x="11.37" y="0">v</tspan><tspan class="cls-87" x="17.02" y="0">a</tspan><tspan x="23.2" y="0">Script</tspan></text><text class="cls-79" transform="translate(495.87 261.5)">Session </text><text class="cls-79" transform="translate(499.9 272.5)">Mgmt</text><text class="cls-79" transform="translate(504.82 310.7)"><tspan class="cls-88">L</tspan><tspan x="6.12" y="0">og</tspan></text><text class="cls-79" transform="translate(498.46 321.7)">Mgmt</text><text class="cls-79" transform="translate(496.99 358.63)">Admin</text><text class="cls-79" transform="translate(490.71 369.63)"><tspan class="cls-89">I</tspan><tspan class="cls-90" x="3.14" y="0">n</tspan><tspan x="10.2" y="0">ter</tspan><tspan class="cls-87" x="25.08" y="0">f</tspan><tspan x="28.61" y="0">ace</tspan></text><text class="cls-91" transform="translate(568.97 266.75)">Reporting</text><text class="cls-79" transform="translate(569.81 310.8)">Business</text><text class="cls-79" transform="translate(578.74 321.8)"><tspan class="cls-88">L</tspan><tspan x="6.12" y="0">ogic</tspan></text><text class="cls-79" transform="translate(579.24 358.73)">Flash</text><text class="cls-79" transform="translate(569.1 369.72)"><tspan class="cls-89">I</tspan><tspan class="cls-90" x="3.14" y="0">n</tspan><tspan x="10.2" y="0">ter</tspan><tspan class="cls-87" x="25.08" y="0">f</tspan><tspan x="28.61" y="0">ace</tspan></text><path class="cls-92" d="M59.07,90H35.39a2.65,2.65,0,0,1-2.65-2.65V78.68A2.65,2.65,0,0,1,35.39,76H59.07a2.65,2.65,0,0,1,2.65,2.65v8.65A2.65,2.65,0,0,1,59.07,90"/><path class="cls-93" d="M396.54,267.56H372.86a2.65,2.65,0,0,1-2.65-2.64v-8.66a2.65,2.65,0,0,1,2.65-2.64h23.68a2.65,2.65,0,0,1,2.65,2.64v8.66a2.65,2.65,0,0,1-2.65,2.64"/><path class="cls-93" d="M450.17,330.61H426.49a2.65,2.65,0,0,1-2.64-2.65v-8.65a2.64,2.64,0,0,1,2.64-2.64h23.68a2.64,2.64,0,0,1,2.65,2.64V328a2.65,2.65,0,0,1-2.65,2.65"/><path class="cls-93" d="M418.62,330.61H394.94a2.65,2.65,0,0,1-2.65-2.65v-8.65a2.65,2.65,0,0,1,2.65-2.64h23.68a2.64,2.64,0,0,1,2.64,2.64V328a2.65,2.65,0,0,1-2.64,2.65"/><path class="cls-93" d="M223.36,620H199.68a2.65,2.65,0,0,1-2.64-2.65v-8.65a2.64,2.64,0,0,1,2.64-2.64h23.68a2.64,2.64,0,0,1,2.65,2.64v8.65a2.65,2.65,0,0,1-2.65,2.65"/><path class="cls-93" d="M191.65,620H168a2.65,2.65,0,0,1-2.65-2.65v-8.65A2.65,2.65,0,0,1,168,606h23.68a2.65,2.65,0,0,1,2.65,2.64v8.65a2.65,2.65,0,0,1-2.65,2.65"/><path class="cls-93" d="M291.36,480.37H267.67a2.65,2.65,0,0,1-2.64-2.65v-8.65a2.65,2.65,0,0,1,2.64-2.65h23.69a2.65,2.65,0,0,1,2.64,2.65v8.65a2.65,2.65,0,0,1-2.64,2.65"/><path class="cls-93" d="M669.22,198.6H645.54a2.64,2.64,0,0,1-2.65-2.64v-8.65a2.64,2.64,0,0,1,2.65-2.65h23.68a2.64,2.64,0,0,1,2.64,2.65V196a2.64,2.64,0,0,1-2.64,2.64"/><path class="cls-93" d="M719.09,132.53H695.41a2.65,2.65,0,0,1-2.65-2.64v-8.66a2.65,2.65,0,0,1,2.65-2.64h23.68a2.65,2.65,0,0,1,2.65,2.64v8.66a2.65,2.65,0,0,1-2.65,2.64"/><path class="cls-93" d="M291.36,498.28H267.67a2.65,2.65,0,0,1-2.64-2.65V487a2.64,2.64,0,0,1,2.64-2.64h23.69A2.64,2.64,0,0,1,294,487v8.65a2.65,2.65,0,0,1-2.64,2.65"/><path class="cls-93" d="M533.06,449.76H509.38a2.65,2.65,0,0,1-2.65-2.64v-8.65a2.65,2.65,0,0,1,2.65-2.65h23.68a2.65,2.65,0,0,1,2.65,2.65v8.65a2.65,2.65,0,0,1-2.65,2.64"/><path class="cls-93" d="M533.06,467.68H509.38a2.65,2.65,0,0,1-2.65-2.65v-8.65a2.65,2.65,0,0,1,2.65-2.64h23.68a2.65,2.65,0,0,1,2.65,2.64V465a2.65,2.65,0,0,1-2.65,2.65"/><path class="cls-93" d="M533.06,494.86H509.38a2.65,2.65,0,0,1-2.65-2.64v-8.65a2.65,2.65,0,0,1,2.65-2.65h23.68a2.65,2.65,0,0,1,2.65,2.65v8.65a2.65,2.65,0,0,1-2.65,2.64"/><path class="cls-93" d="M533.06,512.78H509.38a2.65,2.65,0,0,1-2.65-2.65v-8.65a2.65,2.65,0,0,1,2.65-2.64h23.68a2.65,2.65,0,0,1,2.65,2.64v8.65a2.65,2.65,0,0,1-2.65,2.65"/><path class="cls-93" d="M712.63,563.13H689a2.65,2.65,0,0,1-2.65-2.64v-8.66a2.65,2.65,0,0,1,2.65-2.64h23.68a2.65,2.65,0,0,1,2.65,2.64v8.66a2.65,2.65,0,0,1-2.65,2.64"/><path class="cls-94" d="M59.07,70.09H35.39a2.65,2.65,0,0,1-2.65-2.65V58.79a2.65,2.65,0,0,1,2.65-2.64H59.07a2.65,2.65,0,0,1,2.65,2.64v8.65a2.65,2.65,0,0,1-2.65,2.65"/><path class="cls-94" d="M51.23,333.17H27.55a2.65,2.65,0,0,1-2.65-2.64v-8.66a2.65,2.65,0,0,1,2.65-2.64H51.23a2.65,2.65,0,0,1,2.65,2.64v8.66a2.65,2.65,0,0,1-2.65,2.64"/><path class="cls-94" d="M51.23,351.09H27.55a2.65,2.65,0,0,1-2.65-2.65v-8.65a2.65,2.65,0,0,1,2.65-2.65H51.23a2.65,2.65,0,0,1,2.65,2.65v8.65a2.65,2.65,0,0,1-2.65,2.65"/><path class="cls-94" d="M364.82,267.56H341.14a2.64,2.64,0,0,1-2.65-2.64v-8.66a2.64,2.64,0,0,1,2.65-2.64h23.68a2.64,2.64,0,0,1,2.64,2.64v8.66a2.64,2.64,0,0,1-2.64,2.64"/><path class="cls-94" d="M51.23,369H27.55a2.65,2.65,0,0,1-2.65-2.64V357.7a2.65,2.65,0,0,1,2.65-2.64H51.23a2.65,2.65,0,0,1,2.65,2.64v8.66A2.65,2.65,0,0,1,51.23,369"/><path class="cls-94" d="M481.73,312.7H458.05a2.65,2.65,0,0,1-2.65-2.65V301.4a2.65,2.65,0,0,1,2.65-2.65h23.68a2.65,2.65,0,0,1,2.65,2.65v8.65a2.65,2.65,0,0,1-2.65,2.65"/><path class="cls-94" d="M481.73,330.61H458.05A2.65,2.65,0,0,1,455.4,328v-8.65a2.65,2.65,0,0,1,2.65-2.64h23.68a2.65,2.65,0,0,1,2.65,2.64V328a2.65,2.65,0,0,1-2.65,2.65"/><path class="cls-94" d="M481.73,348.52H458.05a2.65,2.65,0,0,1-2.65-2.64v-8.65a2.65,2.65,0,0,1,2.65-2.65h23.68a2.65,2.65,0,0,1,2.65,2.65v8.65a2.65,2.65,0,0,1-2.65,2.64"/><path class="cls-94" d="M669.22,114.62H645.54a2.65,2.65,0,0,1-2.65-2.65v-8.65a2.65,2.65,0,0,1,2.65-2.65h23.68a2.65,2.65,0,0,1,2.64,2.65V112a2.65,2.65,0,0,1-2.64,2.65"/><path class="cls-94" d="M669.22,132.53H645.54a2.64,2.64,0,0,1-2.65-2.64v-8.66a2.64,2.64,0,0,1,2.65-2.64h23.68a2.64,2.64,0,0,1,2.64,2.64v8.66a2.64,2.64,0,0,1-2.64,2.64"/><path class="cls-94" d="M669.22,251H645.54a2.65,2.65,0,0,1-2.65-2.65v-8.65a2.64,2.64,0,0,1,2.65-2.64h23.68a2.64,2.64,0,0,1,2.64,2.64v8.65a2.65,2.65,0,0,1-2.64,2.65"/><path class="cls-94" d="M669.22,268.87H645.54a2.64,2.64,0,0,1-2.65-2.64v-8.65a2.64,2.64,0,0,1,2.65-2.65h23.68a2.64,2.64,0,0,1,2.64,2.65v8.65a2.64,2.64,0,0,1-2.64,2.64"/><path class="cls-94" d="M564.86,494.86H541.18a2.65,2.65,0,0,1-2.65-2.64v-8.65a2.65,2.65,0,0,1,2.65-2.65h23.68a2.65,2.65,0,0,1,2.64,2.65v8.65a2.64,2.64,0,0,1-2.64,2.64"/><path class="cls-94" d="M564.86,512.78H541.18a2.65,2.65,0,0,1-2.65-2.65v-8.65a2.65,2.65,0,0,1,2.65-2.64h23.68a2.64,2.64,0,0,1,2.64,2.64v8.65a2.65,2.65,0,0,1-2.64,2.65"/><path class="cls-94" d="M669.22,360.53H645.54a2.64,2.64,0,0,1-2.65-2.65v-8.65a2.64,2.64,0,0,1,2.65-2.64h23.68a2.64,2.64,0,0,1,2.64,2.64v8.65a2.64,2.64,0,0,1-2.64,2.65"/><path class="cls-94" d="M480.75,503.75H457.06a2.65,2.65,0,0,1-2.64-2.65v-8.65a2.65,2.65,0,0,1,2.64-2.65h23.69a2.65,2.65,0,0,1,2.64,2.65v8.65a2.65,2.65,0,0,1-2.64,2.65"/><path class="cls-94" d="M564.86,459H541.18a2.65,2.65,0,0,1-2.65-2.65v-8.65a2.65,2.65,0,0,1,2.65-2.65h23.68a2.65,2.65,0,0,1,2.64,2.65v8.65a2.65,2.65,0,0,1-2.64,2.65"/><path class="cls-94" d="M743.65,563.13H720a2.64,2.64,0,0,1-2.65-2.64v-8.66a2.64,2.64,0,0,1,2.65-2.64h23.68a2.64,2.64,0,0,1,2.64,2.64v8.66a2.64,2.64,0,0,1-2.64,2.64"/><path class="cls-94" d="M259,462.45H235.3a2.65,2.65,0,0,1-2.65-2.65v-8.65a2.65,2.65,0,0,1,2.65-2.64H259a2.65,2.65,0,0,1,2.65,2.64v8.65a2.65,2.65,0,0,1-2.65,2.65"/><path class="cls-94" d="M259,480.37H235.3a2.65,2.65,0,0,1-2.65-2.65v-8.65a2.65,2.65,0,0,1,2.65-2.65H259a2.65,2.65,0,0,1,2.65,2.65v8.65a2.65,2.65,0,0,1-2.65,2.65"/><path class="cls-94" d="M259,498.28H235.3a2.65,2.65,0,0,1-2.65-2.65V487a2.65,2.65,0,0,1,2.65-2.64H259a2.65,2.65,0,0,1,2.65,2.64v8.65a2.65,2.65,0,0,1-2.65,2.65"/><path class="cls-94" d="M255.08,620H231.4a2.65,2.65,0,0,1-2.65-2.65v-8.65A2.65,2.65,0,0,1,231.4,606h23.68a2.65,2.65,0,0,1,2.65,2.64v8.65a2.65,2.65,0,0,1-2.65,2.65"/><path class="cls-94" d="M259,515.66H235.3a2.65,2.65,0,0,1-2.65-2.65v-8.65a2.65,2.65,0,0,1,2.65-2.64H259a2.65,2.65,0,0,1,2.65,2.64V513a2.65,2.65,0,0,1-2.65,2.65"/><path class="cls-94" d="M51.23,542.82H27.55a2.65,2.65,0,0,1-2.65-2.65v-8.65a2.65,2.65,0,0,1,2.65-2.64H51.23a2.65,2.65,0,0,1,2.65,2.64v8.65a2.65,2.65,0,0,1-2.65,2.65"/><path class="cls-94" d="M51.23,560.73H27.55a2.65,2.65,0,0,1-2.65-2.64v-8.65a2.65,2.65,0,0,1,2.65-2.65H51.23a2.65,2.65,0,0,1,2.65,2.65v8.65a2.65,2.65,0,0,1-2.65,2.64"/><path class="cls-94" d="M51.23,578.65H27.55A2.65,2.65,0,0,1,24.9,576v-8.65a2.65,2.65,0,0,1,2.65-2.64H51.23a2.65,2.65,0,0,1,2.65,2.64V576a2.65,2.65,0,0,1-2.65,2.65"/><path class="cls-94" d="M669.22,321.58H645.54a2.65,2.65,0,0,1-2.65-2.65v-8.65a2.65,2.65,0,0,1,2.65-2.65h23.68a2.65,2.65,0,0,1,2.64,2.65v8.65a2.65,2.65,0,0,1-2.64,2.65"/><text class="cls-95" transform="translate(37.6 86.94)">C06</text><text class="cls-95" transform="translate(375.15 264.53)">C03</text><text class="cls-95" transform="translate(428.78 327.57)">C03</text><text class="cls-95" transform="translate(397.16 327.57)">C02</text><text class="cls-96" transform="translate(201.69 616.94)"><tspan class="cls-97">C</tspan><tspan class="cls-98" x="6.98" y="0">0</tspan><tspan x="13.05" y="0">3</tspan></text><text class="cls-96" transform="translate(169.97 616.94)"><tspan class="cls-97">C</tspan><tspan class="cls-98" x="6.98" y="0">0</tspan><tspan x="13.05" y="0">2</tspan></text><text class="cls-96" transform="translate(269.68 477.33)"><tspan class="cls-97">C</tspan><tspan class="cls-98" x="6.98" y="0">0</tspan><tspan x="13.05" y="0">4</tspan></text><text class="cls-95" transform="translate(647.7 195.57)">C04</text><text class="cls-95" transform="translate(697.66 129.5)">C05</text><text class="cls-96" transform="translate(269.68 495.25)"><tspan class="cls-97">C</tspan><tspan class="cls-98" x="6.98" y="0">0</tspan><tspan x="13.05" y="0">4</tspan></text><text class="cls-95" transform="translate(511.63 446.74)">C07</text><text class="cls-95" transform="translate(511.67 464.65)">C01</text><text class="cls-95" transform="translate(511.67 491.83)">C01</text><text class="cls-95" transform="translate(511.67 509.74)">C01</text><text class="cls-95" transform="translate(691.25 560.1)">C09</text><text class="cls-95" transform="translate(37.49 67.05)">A06</text><text class="cls-95" transform="translate(29.67 330.13)">A02</text><text class="cls-95" transform="translate(29.73 348.04)">A03</text><text class="cls-95" transform="translate(343.32 264.51)">A03</text><path class="cls-93" d="M450,255.14H426.32a2.65,2.65,0,0,1-2.65-2.64v-8.65a2.65,2.65,0,0,1,2.65-2.65H450a2.65,2.65,0,0,1,2.65,2.65v8.65a2.65,2.65,0,0,1-2.65,2.64"/><path class="cls-94" d="M481.73,255.12H458.05a2.65,2.65,0,0,1-2.65-2.65v-8.65a2.65,2.65,0,0,1,2.65-2.65h23.68a2.65,2.65,0,0,1,2.65,2.65v8.65a2.65,2.65,0,0,1-2.65,2.65"/><text class="cls-95" transform="translate(428.61 252.1)">C03</text><text class="cls-99" transform="translate(460.23 252.07)">A03</text><text class="cls-95" transform="translate(29.61 365.96)">A04</text><text class="cls-99" transform="translate(460.24 309.65)">A01</text><text class="cls-99" transform="translate(460.11 327.57)">A04</text><text class="cls-99" transform="translate(460.23 345.48)">A13</text><text class="cls-99" transform="translate(647.72 111.57)">A03</text><text class="cls-99" transform="translate(647.72 129.49)">A13</text><text class="cls-99" transform="translate(647.64 247.92)">A06</text><text class="cls-99" transform="translate(647.71 265.83)">A08</text><text class="cls-99" transform="translate(543.29 491.82)">A02</text><text class="cls-99" transform="translate(543.32 509.73)">A05</text><text class="cls-99" transform="translate(647.72 357.49)">A11</text><text class="cls-99" transform="translate(459.25 500.71)">A09</text><text class="cls-99" transform="translate(543.23 455.99)">A04</text><text class="cls-99" transform="translate(722.02 560.1)">A14</text><text class="cls-96" transform="translate(237.77 459.41)"><tspan class="cls-100">A</tspan><tspan class="cls-101" x="6.99" y="0">1</tspan><tspan x="13.04" y="0">2</tspan></text><text class="cls-96" transform="translate(236.09 477.33)"><tspan class="cls-98">A0</tspan><tspan x="13.27" y="0">3</tspan></text><text class="cls-96" transform="translate(237.28 495.24)"><tspan class="cls-100">A</tspan><tspan class="cls-101" x="6.99" y="0">1</tspan><tspan x="13.04" y="0">0</tspan></text><text class="cls-96" transform="translate(233.4 616.94)"><tspan class="cls-100">A</tspan><tspan class="cls-101" x="6.99" y="0">1</tspan><tspan x="13.04" y="0">0</tspan></text><text class="cls-96" transform="translate(237.84 512.62)"><tspan class="cls-100">A</tspan><tspan class="cls-101" x="6.99" y="0">1</tspan><tspan x="13.04" y="0">3</tspan></text><text class="cls-95" transform="translate(29.45 539.78)">A<tspan class="cls-102" x="7.2" y="0">0</tspan><tspan class="cls-103" x="13.26" y="0">2</tspan></text><text class="cls-95" transform="translate(29.45 557.69)">A<tspan class="cls-102" x="7.2" y="0">0</tspan><tspan class="cls-103" x="13.26" y="0">3</tspan></text><text class="cls-95" transform="translate(29.45 575.6)">A<tspan class="cls-102" x="7.2" y="0">0</tspan><tspan class="cls-103" x="13.26" y="0">4</tspan></text><text class="cls-99" transform="translate(647.68 318.53)">A07</text><path class="cls-104" d="M131,236.32s-1.36,8.42,2.95,9.21l2-2.94s-4.14-2.15-4.91-6.27"/><path class="cls-104" d="M152.14,236.32s1.36,8.42-2.95,9.21l-2-2.94s4.14-2.15,4.91-6.27"/><path class="cls-105" d="M152.35,249.79a10.69,10.69,0,1,1-10.69-10.69,10.7,10.7,0,0,1,10.69,10.69"/><circle class="cls-106" cx="141.66" cy="249.79" r="10.69" transform="translate(-84.81 73.22) rotate(-22.5)"/><line class="cls-107" x1="141.66" y1="271.45" x2="141.66" y2="260.48"/><text class="cls-108" transform="translate(132.28 252.38)"><tspan class="cls-109">T</tspan><tspan class="cls-110" x="3.66" y="0">A</tspan><tspan class="cls-111" x="8.78" y="0">0</tspan><tspan x="13.55" y="0">2</tspan></text><path class="cls-104" d="M131,447.14s-1.36,8.41,2.95,9.2l2-2.94s-4.14-2.15-4.91-6.26"/><path class="cls-104" d="M152.14,447.14s1.36,8.41-2.95,9.2l-2-2.94s4.14-2.15,4.91-6.26"/><path class="cls-105" d="M152.35,460.6a10.69,10.69,0,1,1-10.69-10.69,10.69,10.69,0,0,1,10.69,10.69"/><circle class="cls-106" cx="141.66" cy="460.6" r="10.69" transform="translate(-165.48 89.27) rotate(-22.5)"/><line class="cls-107" x1="141.66" y1="482.27" x2="141.66" y2="471.29"/><text class="cls-108" transform="translate(132.34 463.2)"><tspan class="cls-109">T</tspan><tspan class="cls-110" x="3.66" y="0">A</tspan><tspan class="cls-111" x="8.78" y="0">0</tspan><tspan x="13.55" y="0">4</tspan></text><path class="cls-104" d="M221.54,236.32s1.36,8.42-2.95,9.21l-2-2.94s4.14-2.15,4.91-6.27"/><path class="cls-104" d="M200.37,236.32s-1.36,8.42,2.95,9.21l2-2.94s-4.14-2.15-4.91-6.27"/><path class="cls-105" d="M221.75,249.79a10.69,10.69,0,1,1-10.69-10.69,10.7,10.7,0,0,1,10.69,10.69"/><circle class="cls-106" cx="211.06" cy="249.79" r="10.69" transform="translate(-79.52 99.78) rotate(-22.5)"/><line class="cls-107" x1="211.06" y1="271.45" x2="211.06" y2="260.48"/><text class="cls-108" transform="translate(202.49 252.38)"><tspan class="cls-109">T</tspan><tspan class="cls-110" x="3.66" y="0">A</tspan><tspan class="cls-111" x="8.78" y="0">0</tspan><tspan x="13.55" y="0">1</tspan></text><path class="cls-104" d="M131,597.75s-1.36,8.42,2.95,9.2l2-2.94s-4.14-2.15-4.91-6.26"/><path class="cls-104" d="M152.14,597.75s1.36,8.42-2.95,9.2l-2-2.94s4.14-2.15,4.91-6.26"/><path class="cls-105" d="M152.35,611.22a10.69,10.69,0,1,1-10.69-10.69,10.69,10.69,0,0,1,10.69,10.69"/><circle class="cls-106" cx="141.66" cy="611.22" r="10.69" transform="translate(-223.12 100.74) rotate(-22.5)"/><line class="cls-107" x1="141.66" y1="632.88" x2="141.66" y2="621.9"/><text class="cls-108" transform="translate(132.32 613.81)"><tspan class="cls-109">T</tspan><tspan class="cls-110" x="3.66" y="0">A</tspan><tspan class="cls-111" x="8.78" y="0">0</tspan><tspan x="13.55" y="0">3</tspan></text><path class="cls-104" d="M719.08,233.39s-1.36,8.42,2.95,9.2l2-2.93s-4.14-2.16-4.91-6.27"/><path class="cls-104" d="M740.25,233.39s1.36,8.42-3,9.2l-2-2.93s4.14-2.16,4.91-6.27"/><path class="cls-105" d="M740.46,246.86a10.69,10.69,0,1,1-10.69-10.69,10.7,10.7,0,0,1,10.69,10.69"/><circle class="cls-106" cx="729.77" cy="246.86" r="10.69" transform="translate(-38.92 298.06) rotate(-22.5)"/><line class="cls-107" x1="729.77" y1="268.52" x2="729.77" y2="257.55"/><text class="cls-112" transform="translate(720.42 249.45)">T<tspan class="cls-113" x="3.66" y="0">A</tspan><tspan class="cls-111" x="8.78" y="0">0</tspan><tspan class="cls-114" x="13.55" y="0">5</tspan></text><path class="cls-104" d="M752.08,233.39s-1.36,8.42,2.95,9.2l2-2.93s-4.13-2.16-4.9-6.27"/><path class="cls-104" d="M773.25,233.39s1.36,8.42-3,9.2l-2-2.93s4.14-2.16,4.91-6.27"/><path class="cls-105" d="M773.45,246.86a10.69,10.69,0,1,1-10.69-10.69,10.69,10.69,0,0,1,10.69,10.69"/><circle class="cls-106" cx="762.76" cy="246.86" r="10.69" transform="translate(242.8 857.09) rotate(-67.5)"/><line class="cls-107" x1="762.76" y1="268.52" x2="762.77" y2="257.55"/><text class="cls-112" transform="translate(753.26 249.45)">T<tspan class="cls-113" x="3.66" y="0">A</tspan><tspan class="cls-111" x="8.78" y="0">0</tspan><tspan class="cls-114" x="13.55" y="0">6</tspan></text><path class="cls-104" d="M785.07,233.39s-1.35,8.42,2.95,9.2l2-2.93s-4.14-2.16-4.91-6.27"/><path class="cls-104" d="M806.25,233.39s1.35,8.42-3,9.2l-2-2.93s4.14-2.16,4.91-6.27"/><path class="cls-105" d="M806.45,246.86a10.69,10.69,0,1,1-10.69-10.69,10.7,10.7,0,0,1,10.69,10.69"/><circle class="cls-106" cx="795.76" cy="246.86" r="10.69" transform="translate(263.17 887.58) rotate(-67.5)"/><line class="cls-107" x1="795.76" y1="268.52" x2="795.76" y2="257.55"/><text class="cls-108" transform="translate(786.47 249.45)"><tspan class="cls-115">T</tspan><tspan class="cls-113" x="3.66" y="0">A</tspan><tspan class="cls-111" x="8.78" y="0">0</tspan><tspan x="13.55" y="0">7</tspan></text></svg>